<svg width="571" height="120" viewBox="0 0 571 120" fill="none" xmlns="http://www.w3.org/2000/svg">
<path d="M20.7639 88.9354V66.2432C27.065 67.7603 30.697 68.7285 38.2503 71.716C52.7141 78.2828 54.2064 90.8381 56.938 100.949C47.1245 95.9263 41.3426 93.209 23.3001 91.0711C21.3728 90.9168 20.7932 90.4715 20.7639 88.9354Z" fill="white"/>
<path d="M97.3846 89.0682V66.376C91.0835 67.8931 87.4515 68.8613 79.8982 71.8488C65.4344 78.4157 63.9421 90.9709 61.2105 101.082C71.024 96.0591 76.8059 93.3418 94.8484 91.2039C96.7757 91.0496 97.3553 90.6043 97.3846 89.0682Z" fill="white"/>
<path d="M56.94 29L1.01037 54.7624C-0.0565391 55.164 -0.590771 57.0607 1.01037 57.699L18.4967 65.0406C44.6595 57.0316 50.5328 54.7624 56.94 29Z" fill="white"/>
<path d="M61.2114 29L117.141 54.7624C118.208 55.164 118.742 57.0607 117.141 57.699L99.6547 65.0406C73.4919 57.0316 67.6186 54.7624 61.2114 29Z" fill="white"/>
<path d="M59.0736 36.6084C59.9709 44.4662 61.3551 49.9155 66.4152 56.097C73.2474 63.6898 82.3516 64.4726 87.3721 64.9069C79.8984 66.3966 74.8223 66.0348 66.6822 73.5834C61.291 79.0736 59.9608 85.398 59.0736 93.072C57.5814 85.6299 57.1819 79.8734 50.7976 72.916C44.7779 66.9169 38.2004 66.1593 29.9742 64.9069C38.9408 63.8754 45.4314 62.6261 51.3315 56.4975C56.1129 51.2719 57.9705 44.0317 59.0736 36.6084Z" fill="white"/>
<path d="M111 60.2358L108.731 61.1702L108.597 75.5865C106.462 75.9869 105.661 79.8579 108.597 80.7923V81.1928L104.593 90.0027H115.005L111 81.3263V80.7923C113.403 80.1249 113.536 76.2539 111 75.5865V60.2358Z" fill="white"/>
<path d="M145.96 96C145.16 96 144.76 95.6 144.76 94.8V33.216C144.76 32.416 145.16 32.016 145.96 32.016H173.224C173.992 32.016 174.632 32.272 175.144 32.784L184.744 42.384C185.288 42.928 185.56 43.568 185.56 44.304V94.8C185.56 95.6 185.16 96 184.36 96H170.776C169.976 96 169.576 95.6 169.576 94.8V44.784H160.744V94.8C160.744 95.6 160.344 96 159.544 96H145.96ZM218.577 96C218.257 96 217.905 95.952 217.521 95.856C217.169 95.76 216.833 95.68 216.513 95.616L207.969 93.504L198.177 90.24C197.217 89.92 196.737 88.992 196.737 87.456V55.536C196.737 54.768 197.009 54.128 197.553 53.616L207.153 44.016C207.697 43.472 208.337 43.2 209.073 43.2H224.433C225.169 43.2 225.809 43.472 226.353 44.016L235.953 53.616C236.497 54.128 236.769 54.768 236.769 55.536V75.216H210.993L210.657 81.6L217.473 83.856L229.713 84.72C230.257 84.816 230.529 85.184 230.529 85.824V94.8C230.529 95.6 230.129 96 229.329 96H218.577ZM216.656 67.68H217.569C219.137 67.68 220.385 67.088 221.312 65.904C222.273 64.72 222.753 63.12 222.753 61.104V60.144C222.753 58.16 222.273 56.576 221.312 55.392C220.385 54.208 219.137 53.616 217.569 53.616H216.609C215.073 53.616 213.841 54.208 212.913 55.392C212.017 56.576 211.569 58.16 211.569 60.144V61.104C211.569 63.12 212.017 64.72 212.913 65.904C213.841 67.088 215.089 67.68 216.656 67.68ZM259.096 96C258.328 96 257.688 95.728 257.176 95.184L247.576 85.584C247.032 85.072 246.76 84.432 246.76 83.664V44.4C246.76 43.6 247.16 43.2 247.96 43.2H260.776C261.576 43.2 261.976 43.6 261.976 44.4V81.744C261.976 83.248 262.712 84 264.184 84H270.76V44.4C270.76 43.6 271.16 43.2 271.96 43.2H284.776C285.576 43.2 285.976 43.6 285.976 44.4V94.8C285.976 95.6 285.576 96 284.776 96H259.096ZM298.398 96C297.598 96 297.198 95.6 297.198 94.8V44.4C297.198 43.6 297.598 43.2 298.398 43.2H305.694C306.302 43.2 306.83 43.472 307.278 44.016L311.982 49.44L317.214 43.776C317.566 43.392 318.014 43.2 318.557 43.2H323.742C324.542 43.2 324.942 43.6 324.942 44.4V54.72C324.942 55.232 324.91 55.584 324.846 55.776C324.782 55.936 324.606 56.112 324.318 56.304L312.414 65.088V94.8C312.414 95.6 312.014 96 311.214 96H298.398ZM342.666 96C341.93 96 341.29 95.728 340.746 95.184L331.146 85.584C330.602 85.072 330.33 84.432 330.33 83.664V55.536C330.33 54.768 330.602 54.128 331.146 53.616L340.746 44.016C341.29 43.472 341.93 43.2 342.666 43.2H357.21C357.978 43.2 358.618 43.472 359.13 44.016L368.73 53.616C369.274 54.128 369.546 54.768 369.546 55.536V83.664C369.546 84.432 369.274 85.072 368.73 85.584L359.13 95.184C358.618 95.728 357.978 96 357.21 96H342.666ZM348.282 84.816H351.642C352.666 84.816 353.37 84.608 353.754 84.192C354.138 83.776 354.33 83.04 354.33 81.984V57.216C354.33 56.16 354.138 55.424 353.754 55.008C353.37 54.592 352.666 54.384 351.642 54.384H348.282C347.226 54.384 346.506 54.592 346.122 55.008C345.738 55.424 345.546 56.16 345.546 57.216V81.984C345.546 83.04 345.738 83.776 346.122 84.192C346.506 84.608 347.226 84.816 348.282 84.816ZM396.329 96C395.689 96 395.049 95.792 394.409 95.376L386.585 90.096L381.209 81.456C380.985 81.04 380.793 80.768 380.633 80.64C380.473 80.48 380.393 80.16 380.393 79.68V59.52C380.393 59.04 380.457 58.72 380.585 58.56C380.713 58.4 380.921 58.112 381.209 57.696L386.105 49.536L394.409 43.824C394.697 43.632 394.985 43.488 395.273 43.392C395.561 43.264 395.913 43.2 396.329 43.2H404.633C405.433 43.2 405.833 43.6 405.833 44.4V53.376C405.833 53.632 405.801 53.904 405.737 54.192C405.705 54.48 405.561 54.704 405.305 54.864L399.833 57.6L395.609 63.12V75.936L400.073 81.024L405.305 84.336C405.625 84.528 405.785 84.768 405.785 85.056C405.817 85.312 405.833 85.568 405.833 85.824V94.8C405.833 95.6 405.433 96 404.633 96H396.329ZM416.04 96C415.24 96 414.84 95.6 414.84 94.8V33.216C414.84 32.416 415.24 32.016 416.04 32.016H428.856C429.656 32.016 430.056 32.416 430.056 33.216V94.8C430.056 95.6 429.656 96 428.856 96H416.04ZM452.635 96C451.899 96 451.259 95.728 450.715 95.184L441.115 85.584C440.571 85.072 440.299 84.432 440.299 83.664V55.536C440.299 54.768 440.571 54.128 441.115 53.616L450.715 44.016C451.259 43.472 451.899 43.2 452.635 43.2H478.315C479.115 43.2 479.515 43.6 479.515 44.4V94.8C479.515 95.6 479.115 96 478.315 96H468.331C467.915 96 467.595 95.92 467.371 95.76C467.179 95.6 466.955 95.408 466.699 95.184L464.299 92.784L461.899 95.184C461.387 95.728 460.747 96 459.979 96H452.635ZM458.251 84.816H461.611C462.635 84.816 463.339 84.608 463.723 84.192C464.107 83.776 464.299 83.04 464.299 81.984V54.384H458.251C457.195 54.384 456.475 54.592 456.091 55.008C455.707 55.424 455.515 56.16 455.515 57.216V81.984C455.515 83.04 455.707 83.776 456.091 84.192C456.475 84.608 457.195 84.816 458.251 84.816ZM490.41 96C489.61 96 489.21 95.6 489.21 94.8V87.024C489.21 86.288 489.45 85.808 489.93 85.584L499.722 79.776V74.784L489.93 69.504C489.45 69.216 489.21 68.72 489.21 68.016V52.704C489.21 52.352 489.258 52.064 489.354 51.84C489.482 51.616 489.658 51.424 489.882 51.264L500.106 43.776C500.458 43.52 500.746 43.36 500.97 43.296C501.194 43.232 501.418 43.2 501.642 43.2H513.306C514.106 43.2 514.506 43.6 514.506 44.4V51.936C514.506 52.48 514.458 52.848 514.362 53.04C514.298 53.232 514.138 53.392 513.882 53.52L504.81 58.416V63.984L514.506 68.784C515.05 69.008 515.322 69.488 515.322 70.224V84.96C515.322 85.76 515.05 86.4 514.506 86.88L504.282 95.376C503.77 95.792 503.13 96 502.362 96H490.41ZM526.585 96C525.785 96 525.385 95.6 525.385 94.8V33.216C525.385 32.416 525.785 32.016 526.585 32.016H539.401C540.201 32.016 540.601 32.416 540.601 33.216V43.2H552.265C553.001 43.2 553.641 43.472 554.185 44.016L563.785 53.616C564.329 54.128 564.601 54.768 564.601 55.536V94.8C564.601 95.6 564.201 96 563.401 96H550.585C549.785 96 549.385 95.6 549.385 94.8V57.216C549.385 55.872 548.713 55.2 547.369 55.2H540.601V94.8C540.601 95.6 540.201 96 539.401 96H526.585Z" fill="white"/>
</svg>
