<svg width="192" height="192" viewBox="0 0 192 192" fill="none" xmlns="http://www.w3.org/2000/svg">
<rect width="192" height="192" rx="30" fill="#256AF4"/>
<path d="M41.8484 129.773V97.6982C50.7548 99.8426 55.8884 101.211 66.5647 105.434C87.0088 114.716 89.118 132.462 92.979 146.753C79.1081 139.654 70.9356 135.813 45.4332 132.792C42.709 132.573 41.8898 131.944 41.8484 129.773Z" fill="white"/>
<path d="M150.147 129.961V97.8867C141.241 100.031 136.107 101.4 125.431 105.622C104.987 114.904 102.878 132.651 99.0169 146.942C112.888 139.843 121.06 136.002 146.563 132.98C149.287 132.762 150.106 132.132 150.147 129.961Z" fill="white"/>
<path d="M92.9825 45.0581L13.9281 81.4722C12.4201 82.0399 11.665 84.7208 13.9281 85.623L38.6444 96C75.6245 84.6796 83.9261 81.4722 92.9825 45.0581Z" fill="white"/>
<path d="M99.0175 45.0581L178.072 81.4722C179.58 82.0399 180.335 84.7208 178.072 85.623L153.356 96C116.376 84.6796 108.074 81.4722 99.0175 45.0581Z" fill="white"/>
<path d="M95.9981 55.8125C97.2664 66.9192 99.2229 74.6216 106.375 83.3589C116.032 94.091 128.901 95.1975 135.997 95.8114C125.433 97.9169 118.258 97.4055 106.752 108.075C99.1323 115.835 97.2521 124.775 95.9981 135.622C93.889 125.102 93.3243 116.966 84.3003 107.132C75.7917 98.6524 66.4946 97.5815 54.8672 95.8114C67.5412 94.3533 76.7154 92.5875 85.055 83.9249C91.8133 76.5388 94.4389 66.3051 95.9981 55.8125Z" fill="white"/>
<path d="M169.392 89.2075L166.185 90.5282L165.996 110.905C162.977 111.471 161.845 116.943 165.996 118.263V118.829L160.336 131.282H175.052L169.392 119.018V118.263C172.788 117.32 172.977 111.848 169.392 110.905V89.2075Z" fill="white"/>
</svg>
