<svg width="24" height="24" viewBox="0 0 24 24" fill="none" xmlns="http://www.w3.org/2000/svg">
<path d="M5.77594 13.4713L10.2195 18.0489L8.44331 19.8794L10.222 21.7112L8.44456 23.5417L5.33347 20.3377L1.77741 24L0 22.1695L3.55607 18.5059L0.44498 15.3031L2.22239 13.4726L3.99979 15.3018L5.77594 13.4713ZM0.687582 0L5.14492 0.00388373L19.999 15.3031L21.7776 13.4726L23.5563 15.3031L20.4452 18.5071L24 22.1695L22.2226 24L18.6665 20.3377L15.5567 23.5417L13.778 21.7112L15.5554 19.8794L0.690096 4.57112L0.687582 0ZM18.8601 0L23.3137 0.00388373L23.3162 4.56465L18.2215 9.81024L13.7768 5.23394L18.8601 0Z" fill="white"/>
</svg>
