<svg width="29" height="24" viewBox="0 0 29 24" fill="none" xmlns="http://www.w3.org/2000/svg">
<path d="M8.71859 19.1396C10.5049 19.1396 12.0616 20.1847 12.7953 21.7273C12.9408 22.0329 12.959 22.3838 12.8458 22.7027C12.7326 23.0217 12.4973 23.2827 12.1918 23.4282C11.8862 23.5737 11.5353 23.5918 11.2163 23.4787C10.8974 23.3655 10.6364 23.1302 10.4909 22.8246C10.3332 22.4872 10.0829 22.2016 9.76913 22.001C9.45534 21.8004 9.09101 21.6931 8.71859 21.6916H2.55184C2.21344 21.6916 1.88889 21.5571 1.6496 21.3179C1.41031 21.0786 1.27588 20.754 1.27588 20.4156C1.27588 20.0772 1.41031 19.7527 1.6496 19.5134C1.88889 19.2741 2.21344 19.1396 2.55184 19.1396H8.71859ZM25.5192 19.1396C25.8576 19.1396 26.1822 19.2741 26.4215 19.5134C26.6608 19.7527 26.7952 20.0772 26.7952 20.4156C26.7952 20.754 26.6608 21.0786 26.4215 21.3179C26.1822 21.5571 25.8576 21.6916 25.5192 21.6916H19.3525C18.629 21.6916 17.9043 22.1471 17.5802 22.8259C17.4347 23.1315 17.1737 23.3668 16.8547 23.4799C16.5358 23.5931 16.1849 23.575 15.8793 23.4294C15.5737 23.2839 15.3385 23.023 15.2253 22.704C15.1121 22.385 15.1303 22.0342 15.2758 21.7286C15.6455 20.9593 16.2235 20.3089 16.944 19.8513C17.6646 19.3937 18.4989 19.1472 19.3525 19.1396H25.5192Z" fill="white"/>
<path fill-rule="evenodd" clip-rule="evenodd" d="M10.0661 0.00765585C10.8296 0.0476133 11.5765 0.245609 12.2596 0.589115C12.9427 0.932621 13.547 1.41416 14.0343 2.00327C14.5524 1.377 15.2023 0.872753 15.9376 0.526481C16.673 0.18021 17.4756 0.000443149 18.2884 0H26.7953C27.1337 0 27.4582 0.134432 27.6975 0.373722C27.9368 0.613012 28.0712 0.937558 28.0712 1.27597V16.5888C28.0712 16.9272 27.9368 17.2518 27.6975 17.4911C27.4582 17.7304 27.1337 17.8648 26.7953 17.8648L18.2884 17.8635C17.4488 17.8635 16.904 18.0702 16.5378 18.3152C16.1809 18.56 15.8949 18.8944 15.7084 19.2849C15.4717 19.7697 15.3367 20.2977 15.3116 20.8365V20.848L15.3052 20.9718C15.2736 21.2865 15.1262 21.5783 14.8916 21.7906C14.657 22.0028 14.352 22.1203 14.0356 22.1203C13.7193 22.1203 13.4142 22.0028 13.1796 21.7906C12.945 21.5783 12.7976 21.2865 12.766 20.9718L12.7597 20.8416V20.8352L12.7546 20.7485C12.7209 20.2384 12.5888 19.7396 12.3654 19.2798C12.184 18.8899 11.9022 18.5552 11.5488 18.3101C11.1915 18.0677 10.6581 17.8635 9.83514 17.8635H1.27597C0.937558 17.8635 0.613012 17.7291 0.373722 17.4898C0.134432 17.2505 0 16.926 0 16.5876V1.27597C0 0.937558 0.134432 0.613012 0.373722 0.373722C0.613012 0.134432 0.937558 0 1.27597 0H9.78283L10.0661 0.00765585ZM12.7597 2.55193V18.2897H15.3116V2.55193H12.7597Z" fill="white"/>
</svg>
