<svg width="33" height="31" viewBox="0 0 33 31" fill="none" xmlns="http://www.w3.org/2000/svg">
<path d="M30.0889 0.539551L30.1738 0.552246L30.2764 0.566895L30.3643 0.620605C30.4549 0.676111 30.5362 0.76124 30.5801 0.808105C30.6382 0.870151 30.7037 0.946009 30.7715 1.02783C30.9081 1.19276 31.0688 1.40026 31.2246 1.60791C31.3807 1.81592 31.5358 2.02848 31.6602 2.20752C31.7748 2.37255 31.8889 2.54401 31.9404 2.64893L32.0762 2.92529L31.8896 3.17139C31.7212 3.39364 31.4577 3.63297 31.2207 3.83447C30.9803 4.03881 30.7144 4.24681 30.5488 4.38232C30.0608 4.78207 29.5767 5.18683 29.0967 5.59619C28.5228 6.08834 27.8477 6.77599 27.252 7.34033L27.249 7.34424C26.3899 8.14148 25.7537 9.08371 24.9404 10.0474C22.1708 13.3291 20.336 16.6787 18.6152 20.6274L17.8691 22.3462C17.8346 22.4263 17.7433 22.6633 17.6729 22.7974C17.4551 23.2115 17.3364 23.7049 17.2148 24.2671C17.0991 24.8024 16.9775 25.4173 16.7354 25.9526L16.7363 25.9536C16.7077 26.0169 16.6714 26.0608 16.6592 26.0757C16.6419 26.0967 16.6247 26.1149 16.6123 26.1274C16.5874 26.1526 16.5599 26.1772 16.5352 26.1987C16.4841 26.2431 16.4189 26.2958 16.3486 26.3511C16.2067 26.4627 16.0226 26.601 15.8379 26.7378C15.4818 27.0015 15.0666 27.3018 14.9932 27.356L14.9922 27.355C14.3892 27.8049 13.797 28.2693 13.2158 28.7466C13.129 28.8183 12.937 28.9863 12.7715 29.1177C12.6071 29.2481 12.3797 29.4161 12.1641 29.4995L12.165 29.5005C11.951 29.5835 11.7751 29.4964 11.7148 29.4604C11.6473 29.4201 11.602 29.3733 11.582 29.3511C11.5383 29.3024 11.5054 29.2493 11.4854 29.2163C11.441 29.1435 11.3953 29.054 11.3574 28.9761C11.3179 28.8949 11.2793 28.8108 11.249 28.7446C11.2335 28.7107 11.2206 28.6826 11.21 28.6597C11.2047 28.6483 11.2005 28.6391 11.1973 28.6323C11.1941 28.6257 11.1929 28.6236 11.1934 28.6245L10.917 28.0854C9.68784 25.683 8.20822 23.2187 6.38965 21.2681L6.38867 21.2661C6.05681 20.9068 5.74341 20.595 5.38672 20.2495V20.2485C5.24555 20.1168 5.11492 19.9505 5.02051 19.8335C4.90787 19.6939 4.83105 19.6055 4.76465 19.5522C4.28085 19.1642 3.74633 18.7573 3.24219 18.4106C3.00102 18.2448 2.62289 18.0823 2.27539 17.9165L1.24609 17.4243L2.30566 17.0005C2.41175 16.958 2.5226 16.8982 2.6582 16.8208C2.7842 16.7489 2.94208 16.6562 3.10156 16.5815C3.63613 16.3313 4.18741 16.0212 4.76855 15.7046C5.34037 15.393 5.93777 15.0766 6.5293 14.8394L6.71387 14.7651L6.89941 14.8384C7.10799 14.9211 7.35619 15.0817 7.55762 15.2192C7.76668 15.362 7.9837 15.5214 8.11328 15.6138C9.17428 16.37 10.1898 17.057 11.1279 18.0815C11.2784 18.2459 11.7864 18.8448 12.2568 19.3911C12.4415 19.6056 12.6238 19.8134 12.7803 19.9907C12.7994 19.9436 12.8194 19.896 12.8379 19.856C13.4542 18.5197 14.0696 17.1416 14.7871 15.8218C15.3962 14.7015 16.0554 13.6482 16.7812 12.605C18.9709 9.20707 21.9431 6.365 24.9482 3.7749C25.6666 3.15574 26.6865 2.54538 27.416 2.06592C28.1078 1.61113 29.0017 0.989407 29.792 0.588379L29.9326 0.51709L30.0889 0.539551Z" fill="#42EBF7" stroke="#42EBF7"/>
</svg>
