<svg width="24" height="24" viewBox="0 0 24 24" fill="none" xmlns="http://www.w3.org/2000/svg">
<circle cx="12" cy="12" r="11" fill="#FACC15" stroke="url(#paint0_linear_251_47312)" stroke-width="2"/>
<path d="M19.25 2.5C20 3 20.89 3.67478 22.25 5.75L20 7L18 4.5L19.25 2.5Z" fill="#FFEFB0"/>
<path d="M5 21.75C4.25 21.25 3.11002 20.3252 1.75 18.25L4.25 17L6.25 19.5L5 21.75Z" fill="#FFEFB0"/>
<circle cx="12" cy="12" r="9.5" fill="#DFB200"/>
<path d="M6.7317 15.3858V12.4004C7.56069 12.6 8.03852 12.7274 9.03224 13.1204C10.9351 13.9843 11.1314 15.6361 11.4908 16.9663C10.1997 16.3055 9.43907 15.948 7.06537 15.6668C6.81181 15.6465 6.73556 15.5879 6.7317 15.3858Z" fill="white"/>
<path d="M16.812 15.4024V12.417C15.9831 12.6166 15.5052 12.744 14.5115 13.137C12.6086 14.0009 12.4123 15.6527 12.0529 16.9829C13.344 16.3221 14.1047 15.9646 16.4784 15.6834C16.7319 15.6631 16.8082 15.6045 16.812 15.4024Z" fill="white"/>
<path d="M11.4911 7.5L4.13293 10.8893C3.99256 10.9422 3.92228 11.1917 4.13293 11.2757L6.43346 12.2416C9.87547 11.1879 10.6482 10.8893 11.4911 7.5Z" fill="white"/>
<path d="M12.053 7.5L19.4112 10.8893C19.5516 10.9422 19.6219 11.1917 19.4112 11.2757L17.1107 12.2416C13.6687 11.1879 12.896 10.8893 12.053 7.5Z" fill="white"/>
<path d="M11.7718 8.50098C11.8899 9.53476 12.072 10.2517 12.7377 11.0649C13.6365 12.0638 14.8343 12.1668 15.4948 12.224C14.5116 12.42 13.8437 12.3723 12.7728 13.3655C12.0635 14.0878 11.8885 14.9198 11.7718 15.9294C11.5755 14.9503 11.523 14.193 10.683 13.2777C9.89106 12.4884 9.02571 12.3887 7.94346 12.224C9.12313 12.0883 9.97704 11.9239 10.7533 11.1176C11.3823 10.4301 11.6267 9.4776 11.7718 8.50098Z" fill="white"/>
<path d="M18.6034 11.6104L18.3048 11.7333L18.2873 13.6299C18.0063 13.6826 17.9009 14.1919 18.2873 14.3148V14.3675L17.7604 15.5265H19.1302L18.6034 14.385V14.3148C18.9195 14.227 18.937 13.7177 18.6034 13.6299V11.6104Z" fill="white"/>
<defs>
<linearGradient id="paint0_linear_251_47312" x1="7.75" y1="6.75" x2="22.2895" y2="24" gradientUnits="userSpaceOnUse">
<stop stop-color="#F5F5F5" stop-opacity="0.4"/>
<stop offset="1" stop-color="#FACC15"/>
</linearGradient>
</defs>
</svg>
