<svg width="30" height="30" viewBox="0 0 30 30" fill="none" xmlns="http://www.w3.org/2000/svg">
<g clip-path="url(#clip0_530_98)">
<path d="M10.4508 0.986913C7.45335 2.02676 4.86834 4.00043 3.07548 6.61801C1.28262 9.23559 0.376419 12.3591 0.489976 15.5298C0.603533 18.7005 1.73087 21.7512 3.70638 24.2338C5.6819 26.7164 8.40148 28.5001 11.4657 29.3229C13.9499 29.9639 16.5526 29.992 19.05 29.4049C21.3125 28.8967 23.4042 27.8096 25.1203 26.2502C26.9065 24.5776 28.2029 22.4498 28.8703 20.0955C29.5958 17.5354 29.7249 14.843 29.2477 12.2252H15.2977V18.0119H23.3766C23.2151 18.9349 22.8691 19.8157 22.3593 20.6018C21.8495 21.3879 21.1863 22.0631 20.4094 22.5869C19.4229 23.2395 18.3108 23.6786 17.1446 23.876C15.9749 24.0935 14.7752 24.0935 13.6055 23.876C12.42 23.6309 11.2985 23.1416 10.3125 22.4393C8.72851 21.318 7.53912 19.725 6.9141 17.8877C6.2785 16.016 6.2785 13.9868 6.9141 12.115C7.359 10.803 8.09449 9.60848 9.06566 8.62051C10.177 7.46913 11.5841 6.64612 13.1324 6.24178C14.6808 5.83743 16.3106 5.86738 17.843 6.32832C19.0401 6.6958 20.1348 7.33786 21.0399 8.20332C21.9508 7.29707 22.8602 6.38848 23.768 5.47754C24.2368 4.98769 24.7477 4.52129 25.2094 4.01973C23.8279 2.73412 22.2063 1.73377 20.4375 1.07598C17.2165 -0.0935799 13.6922 -0.125011 10.4508 0.986913Z" fill="white"/>
<path d="M10.4509 0.986587C13.692 -0.126092 17.2163 -0.0954888 20.4376 1.07331C22.2067 1.73556 23.8276 2.74074 25.2071 4.03112C24.7384 4.53268 24.2438 5.00143 23.7657 5.48893C22.8563 6.39674 21.9478 7.30143 21.0399 8.20299C20.1349 7.33753 19.0402 6.69547 17.8431 6.32799C16.3111 5.86543 14.6814 5.83376 13.1326 6.23645C11.5839 6.63914 10.176 7.46064 9.06338 8.61081C8.09221 9.59878 7.35672 10.7933 6.91182 12.1053L2.05322 8.34362C3.7923 4.89493 6.80342 2.25696 10.4509 0.986587Z" fill="#E33629"/>
<path d="M0.764251 12.0703C1.02539 10.7761 1.45895 9.52272 2.05331 8.34375L6.91191 12.1148C6.27632 13.9866 6.27632 16.0158 6.91191 17.8875C5.29316 19.1375 3.67363 20.3938 2.05331 21.6562C0.565385 18.6945 0.111593 15.3199 0.764251 12.0703Z" fill="#F8BD00"/>
<path d="M15.2974 12.2227H29.2474C29.7246 14.8405 29.5955 17.5328 28.8701 20.093C28.2027 22.4472 26.9062 24.575 25.1201 26.2477C23.5521 25.0242 21.9771 23.8102 20.4091 22.5867C21.1865 22.0624 21.85 21.3865 22.3599 20.5995C22.8697 19.8126 23.2155 18.9308 23.3763 18.007H15.2974C15.2951 16.0805 15.2974 14.1516 15.2974 12.2227Z" fill="#587DBD"/>
<path d="M2.05078 21.6564C3.67109 20.4064 5.29062 19.1502 6.90937 17.8877C7.53564 19.7257 8.72673 21.3187 10.3125 22.4393C11.3016 23.1383 12.4255 23.6236 13.6125 23.8643C14.7822 24.0817 15.9819 24.0817 17.1516 23.8643C18.3178 23.6668 19.4299 23.2278 20.4164 22.5752C21.9844 23.7986 23.5594 25.0127 25.1273 26.2361C23.4115 27.7964 21.3197 28.8843 19.057 29.3932C16.5596 29.9803 13.9569 29.9521 11.4727 29.3111C9.50789 28.7865 7.67268 27.8617 6.08203 26.5947C4.39842 25.2581 3.02333 23.5736 2.05078 21.6564Z" fill="#319F43"/>
</g>
<defs>
<clipPath id="clip0_530_98">
<rect width="30" height="30" fill="white"/>
</clipPath>
</defs>
</svg>
