<svg width="12" height="11" viewBox="0 0 12 11" fill="none" xmlns="http://www.w3.org/2000/svg">
<path fill-rule="evenodd" clip-rule="evenodd" d="M0.937061 0.935514C1.53625 0.336505 2.34882 0 3.19607 0C4.04333 0 4.8559 0.336505 5.45509 0.935514C5.57224 1.05225 5.72306 1.19752 5.90753 1.37134C6.09157 1.19752 6.24217 1.05225 6.35933 0.935514C6.95601 0.341634 7.76296 0.00723161 8.60481 0.00497697C9.44666 0.00272234 10.2554 0.332798 10.8552 0.923473C11.4551 1.51415 11.7976 2.31769 11.8083 3.15948C11.819 4.00126 11.4971 4.81327 10.9125 5.41903L6.35869 9.97284C6.23885 10.0926 6.07634 10.1599 5.90689 10.1599C5.73744 10.1599 5.57492 10.0926 5.45509 9.97284L0.901275 5.41967C0.317216 4.81731 -0.00647789 4.00939 9.82749e-05 3.17039C0.00667444 2.33139 0.343632 1.52865 0.937061 0.935514Z" fill="#22C55E"/>
</svg>
