<svg width="36" height="36" viewBox="0 0 36 36" fill="none" xmlns="http://www.w3.org/2000/svg">
<path d="M18 32C15.2 32 12.7222 31.1502 10.5667 29.4507C8.41111 27.7511 7.01111 25.5787 6.36667 22.9333C6.27778 22.6 6.34444 22.2947 6.56667 22.0173C6.78889 21.74 7.08889 21.5787 7.46667 21.5333C7.82222 21.4889 8.14444 21.5556 8.43333 21.7333C8.72222 21.9111 8.92222 22.1778 9.03333 22.5333C9.56667 24.5333 10.6667 26.1667 12.3333 27.4333C14 28.7 15.8889 29.3333 18 29.3333C20.6 29.3333 22.8058 28.428 24.6173 26.6173C26.4289 24.8067 27.3342 22.6009 27.3333 20C27.3324 17.3991 26.4271 15.1938 24.6173 13.384C22.8076 11.5742 20.6018 10.6684 18 10.6667C16.4667 10.6667 15.0333 11.0222 13.7 11.7333C12.3667 12.4444 11.2444 13.4222 10.3333 14.6667H12.6667C13.0444 14.6667 13.3613 14.7947 13.6173 15.0507C13.8733 15.3067 14.0009 15.6231 14 16C13.9991 16.3769 13.8711 16.6938 13.616 16.9507C13.3609 17.2076 13.0444 17.3351 12.6667 17.3333H7.33333C6.95556 17.3333 6.63911 17.2053 6.384 16.9493C6.12889 16.6933 6.00089 16.3769 6 16V10.6667C6 10.2889 6.128 9.97244 6.384 9.71733C6.64 9.46222 6.95644 9.33422 7.33333 9.33333C7.71022 9.33244 8.02711 9.46044 8.284 9.71733C8.54089 9.97422 8.66844 10.2907 8.66667 10.6667V12.4667C9.8 11.0444 11.1836 9.94444 12.8173 9.16667C14.4511 8.38889 16.1787 8 18 8C19.6667 8 21.228 8.31689 22.684 8.95067C24.14 9.58444 25.4067 10.4396 26.484 11.516C27.5613 12.5924 28.4169 13.8591 29.0507 15.316C29.6844 16.7729 30.0009 18.3342 30 20C29.9991 21.6658 29.6827 23.2271 29.0507 24.684C28.4187 26.1409 27.5631 27.4076 26.484 28.484C25.4049 29.5604 24.1382 30.416 22.684 31.0507C21.2298 31.6853 19.6684 32.0018 18 32ZM19.3333 19.4667L22.6667 22.8C22.9111 23.0444 23.0333 23.3556 23.0333 23.7333C23.0333 24.1111 22.9111 24.4222 22.6667 24.6667C22.4222 24.9111 22.1111 25.0333 21.7333 25.0333C21.3556 25.0333 21.0444 24.9111 20.8 24.6667L17.0667 20.9333C16.9333 20.8 16.8333 20.6502 16.7667 20.484C16.7 20.3178 16.6667 20.1453 16.6667 19.9667V14.6667C16.6667 14.2889 16.7947 13.9724 17.0507 13.7173C17.3067 13.4622 17.6231 13.3342 18 13.3333C18.3769 13.3324 18.6938 13.4604 18.9507 13.7173C19.2076 13.9742 19.3351 14.2907 19.3333 14.6667V19.4667Z" fill="#A1A1A1"/>
</svg>
