<svg width="32" height="42" viewBox="0 0 32 42" fill="none" xmlns="http://www.w3.org/2000/svg">
<path d="M15.5356 0.518555C21.5429 0.518555 26.4106 5.38626 26.4106 11.3936V17.0898H26.7212C28.8301 17.0898 30.5532 18.813 30.5532 20.9219V35.4219C30.5532 38.4422 28.0842 40.9111 25.064 40.9111H6.00732C2.98704 40.9111 0.518081 38.4422 0.518066 35.4219V20.9219C0.518066 18.813 2.24124 17.0898 4.3501 17.0898H4.66064V11.3936C4.66064 5.38626 9.52835 0.518555 15.5356 0.518555ZM15.5356 5.69727C12.3872 5.69727 9.83936 8.24513 9.83936 11.3936V17.0898H21.2319V11.3936C21.2319 8.24513 18.6841 5.69727 15.5356 5.69727ZM14.4995 34.1787C14.4995 34.4533 14.6091 34.7169 14.8032 34.9111C14.9975 35.1054 15.261 35.2148 15.5356 35.2148C15.8103 35.2148 16.0738 35.1054 16.2681 34.9111C16.4622 34.7169 16.5718 34.4533 16.5718 34.1787V28.8428L16.8677 28.7021C17.5059 28.4003 18.023 27.8904 18.3325 27.2559C18.6421 26.6213 18.7258 25.8998 18.5708 25.2109C18.4158 24.5221 18.0306 23.9066 17.479 23.4658C16.9275 23.0252 16.2425 22.7855 15.5366 22.7861H15.5347C14.8288 22.7855 14.1437 23.0252 13.5923 23.4658C13.0407 23.9066 12.6555 24.5221 12.5005 25.2109C12.3454 25.8998 12.4292 26.6213 12.7388 27.2559C13.0483 27.8904 13.5654 28.4003 14.2036 28.7021L14.4995 28.8428V34.1787Z" fill="#C3C3C3" stroke="#2A2A2A" stroke-width="1.03571"/>
</svg>
