<svg width="167" height="102" viewBox="0 0 167 102" fill="none" xmlns="http://www.w3.org/2000/svg">
<path d="M29.3486 84.7147V52.6401C38.255 54.7845 43.3887 56.153 54.0649 60.3758C74.509 69.6577 76.6183 87.404 80.4792 101.695C66.6083 94.596 58.4358 90.7552 32.9334 87.7335C30.2092 87.5153 29.39 86.8859 29.3486 84.7147Z" fill="white"/>
<path d="M137.647 84.9032V52.8286C128.741 54.973 123.607 56.3415 112.931 60.5642C92.4871 69.8462 90.3778 87.5925 86.5169 101.884C100.388 94.7845 108.56 90.9437 134.063 87.9219C136.787 87.7038 137.606 87.0743 137.647 84.9032Z" fill="white"/>
<path d="M80.4825 0L1.42811 36.414C-0.0799157 36.9818 -0.835031 39.6627 1.42811 40.5649L26.1444 50.9419C63.1245 39.6215 71.4261 36.414 80.4825 0Z" fill="white"/>
<path d="M86.5175 0L165.572 36.414C167.08 36.9818 167.835 39.6627 165.572 40.5649L140.856 50.9419C103.876 39.6215 95.5739 36.414 86.5175 0Z" fill="white"/>
<path d="M83.4981 10.7544C84.7664 21.8611 86.7229 29.5635 93.8751 38.3008C103.532 49.0329 116.401 50.1394 123.497 50.7532C112.933 52.8588 105.758 52.3474 94.2525 63.017C86.6323 70.7772 84.7521 79.7166 83.4981 90.5634C81.389 80.0443 80.8243 71.9077 71.8003 62.0737C63.2917 53.5943 53.9946 52.5233 42.3672 50.7532C55.0412 49.2952 64.2154 47.5294 72.555 38.8668C79.3133 31.4807 81.9389 21.247 83.4981 10.7544Z" fill="white"/>
<path d="M156.892 44.1494L153.685 45.4701L153.496 65.8469C150.477 66.4129 149.345 71.8845 153.496 73.2052V73.7712L147.836 86.2237H162.552L156.892 73.9599V73.2052C160.288 72.2618 160.477 66.7903 156.892 65.8469V44.1494Z" fill="white"/>
</svg>
