<svg width="66" height="41" viewBox="0 0 66 41" fill="none" xmlns="http://www.w3.org/2000/svg">
<path d="M11.5988 33.4802V20.8042C15.1187 21.6517 17.1475 22.1925 21.3668 23.8614C29.4464 27.5296 30.28 34.543 31.8058 40.191C26.324 37.3854 23.0942 35.8674 13.0155 34.6732C11.9389 34.587 11.6152 34.3383 11.5988 33.4802Z" fill="#256AF4"/>
<path d="M54.3995 33.5544V20.8784C50.8797 21.7259 48.8509 22.2667 44.6316 23.9356C36.552 27.6038 35.7184 34.6173 34.1925 40.2652C39.6744 37.4596 42.9042 35.9417 52.9828 34.7475C54.0594 34.6613 54.3832 34.4125 54.3995 33.5544Z" fill="#256AF4"/>
<path d="M31.807 0L0.564396 14.391C-0.031583 14.6154 -0.330008 15.6749 0.564396 16.0314L10.3324 20.1325C24.9471 15.6586 28.2279 14.391 31.807 0Z" fill="#256AF4"/>
<path d="M34.193 0L65.4356 14.391C66.0316 14.6154 66.33 15.6749 65.4356 16.0314L55.6676 20.1325C41.0529 15.6586 37.7721 14.391 34.193 0Z" fill="#256AF4"/>
<path d="M32.9988 4.25C33.5001 8.63941 34.2733 11.6834 37.0999 15.1364C40.9164 19.3778 46.002 19.8151 48.8065 20.0577C44.6317 20.8899 41.7961 20.6877 37.249 24.9044C34.2375 27.9713 33.4944 31.5041 32.9988 35.7909C32.1653 31.6337 31.9421 28.418 28.3758 24.5316C25.0132 21.1805 21.3389 20.7573 16.7437 20.0577C21.7526 19.4815 25.3782 18.7836 28.6741 15.3601C31.345 12.4411 32.3826 8.39671 32.9988 4.25Z" fill="#256AF4"/>
<path d="M62.0053 17.4487L60.7377 17.9707L60.6631 26.0237C59.4701 26.2474 59.0227 28.4097 60.6631 28.9317V29.1554L58.4262 34.0767H64.2423L62.0053 29.23V28.9317C63.3475 28.5589 63.422 26.3965 62.0053 26.0237V17.4487Z" fill="#256AF4"/>
</svg>
