<svg width="58" height="58" viewBox="0 0 58 58" fill="none" xmlns="http://www.w3.org/2000/svg">
<path d="M42.125 30.375C45.2413 30.375 48.23 31.6129 50.4336 33.8164C52.6371 36.02 53.875 39.0087 53.875 42.125C53.875 45.2413 52.6371 48.23 50.4336 50.4336C48.23 52.6371 45.2413 53.875 42.125 53.875C39.0087 53.875 36.02 52.6371 33.8164 50.4336C31.6129 48.23 30.375 45.2413 30.375 42.125C30.375 39.0087 31.6129 36.02 33.8164 33.8164C36.02 31.6129 39.0087 30.375 42.125 30.375ZM48.6758 6.07031C49.5339 6.08545 50.3531 6.43313 50.96 7.04004C51.5669 7.64694 51.9145 8.46605 51.9297 9.32422C51.9448 10.1823 51.626 11.0127 51.041 11.6406L51.0352 11.6475L51.0283 11.6533L11.6533 51.0283C11.3525 51.3477 10.9917 51.6046 10.5908 51.7832C10.1845 51.9642 9.74555 52.0615 9.30078 52.0693C8.85607 52.0772 8.41436 51.9957 8.00195 51.8291C7.58949 51.6625 7.21494 51.4142 6.90039 51.0996C6.58584 50.7851 6.3375 50.4105 6.1709 49.998C6.00435 49.5856 5.92282 49.1439 5.93066 48.6992C5.93851 48.2545 6.03575 47.8155 6.2168 47.4092C6.39784 47.003 6.65901 46.6372 6.98438 46.334L46.3467 6.97168L46.3525 6.96484L46.3594 6.95898C46.9873 6.374 47.8177 6.05517 48.6758 6.07031ZM42.125 37C40.7658 37 39.4621 37.5399 38.501 38.501C37.5399 39.4621 37 40.7658 37 42.125C37 43.4842 37.5399 44.7879 38.501 45.749C39.4621 46.7101 40.7658 47.25 42.125 47.25C43.4842 47.25 44.7879 46.7101 45.749 45.749C46.7101 44.7879 47.25 43.4842 47.25 42.125C47.25 40.7658 46.7101 39.4621 45.749 38.501C44.7879 37.5399 43.4842 37 42.125 37ZM15.875 4.125C18.9913 4.125 21.98 5.36285 24.1836 7.56641C26.3871 9.76996 27.625 12.7587 27.625 15.875C27.625 18.9913 26.3871 21.98 24.1836 24.1836C21.98 26.3871 18.9913 27.625 15.875 27.625C12.7587 27.625 9.76996 26.3871 7.56641 24.1836C5.36285 21.98 4.125 18.9913 4.125 15.875C4.125 12.7587 5.36285 9.76996 7.56641 7.56641C9.76996 5.36285 12.7587 4.125 15.875 4.125ZM15.875 10.75C14.5158 10.75 13.2121 11.2899 12.251 12.251C11.2899 13.2121 10.75 14.5158 10.75 15.875C10.75 17.2342 11.2899 18.5379 12.251 19.499C13.2121 20.4601 14.5158 21 15.875 21C17.2342 21 18.5379 20.4601 19.499 19.499C20.4601 18.5379 21 17.2342 21 15.875C21 14.5158 20.4601 13.2121 19.499 12.251C18.5379 11.2899 17.2342 10.75 15.875 10.75Z" fill="#A1A1A1" stroke="#A1A1A1"/>
</svg>
