<svg width="48" height="48" viewBox="0 0 48 48" fill="none" xmlns="http://www.w3.org/2000/svg">
<path d="M8.00001 42C7.43334 42 6.95867 41.808 6.57601 41.424C6.19334 41.04 6.00134 40.5653 6.00001 40C5.99867 39.4347 6.19067 38.96 6.57601 38.576C6.96134 38.192 7.43601 38 8.00001 38H10V8C10 7.43333 10.192 6.95867 10.576 6.576C10.96 6.19333 11.4347 6.00133 12 6H26C26.5667 6 27.042 6.192 27.426 6.576C27.81 6.96 28.0013 7.43467 28 8H36C36.5667 8 37.042 8.192 37.426 8.576C37.81 8.96 38.0013 9.43467 38 10V38H40C40.5667 38 41.042 38.192 41.426 38.576C41.81 38.96 42.0013 39.4347 42 40C41.9987 40.5653 41.8067 41.0407 41.424 41.426C41.0413 41.8113 40.5667 42.0027 40 42H36C35.4333 42 34.9587 41.808 34.576 41.424C34.1933 41.04 34.0013 40.5653 34 40V12H28V40C28 40.5667 27.808 41.042 27.424 41.426C27.04 41.81 26.5653 42.0013 26 42H8.00001ZM23.426 22.576C23.042 22.192 22.5667 22 22 22C21.4333 22 20.9587 22.192 20.576 22.576C20.1933 22.96 20.0013 23.4347 20 24C19.9987 24.5653 20.1907 25.0407 20.576 25.426C20.9613 25.8113 21.436 26.0027 22 26C22.564 25.9973 23.0393 25.8053 23.426 25.424C23.8127 25.0427 24.004 24.568 24 24C23.996 23.432 23.804 22.9573 23.424 22.576" fill="white"/>
</svg>
