<svg width="19" height="21" viewBox="0 0 19 21" fill="none" xmlns="http://www.w3.org/2000/svg">
<path d="M15.8333 21C14.9537 21 14.206 20.6937 13.5903 20.0812C12.9745 19.4688 12.6667 18.725 12.6667 17.85C12.6667 17.745 12.6931 17.5 12.7458 17.115L5.33056 12.81C5.04907 13.0725 4.72361 13.2783 4.35417 13.4274C3.98472 13.5765 3.58889 13.6507 3.16667 13.65C2.28704 13.65 1.53935 13.3437 0.923611 12.7312C0.30787 12.1187 0 11.375 0 10.5C0 9.625 0.30787 8.88125 0.923611 8.26875C1.53935 7.65625 2.28704 7.35 3.16667 7.35C3.58889 7.35 3.98472 7.42455 4.35417 7.57365C4.72361 7.72275 5.04907 7.9282 5.33056 8.19L12.7458 3.885C12.7106 3.7625 12.6888 3.64455 12.6804 3.53115C12.6719 3.41775 12.6674 3.2907 12.6667 3.15C12.6667 2.275 12.9745 1.53125 13.5903 0.91875C14.206 0.30625 14.9537 0 15.8333 0C16.713 0 17.4606 0.30625 18.0764 0.91875C18.6921 1.53125 19 2.275 19 3.15C19 4.025 18.6921 4.76875 18.0764 5.38125C17.4606 5.99375 16.713 6.3 15.8333 6.3C15.4111 6.3 15.0153 6.22545 14.6458 6.07635C14.2764 5.92725 13.9509 5.7218 13.6694 5.46L6.25417 9.765C6.28935 9.8875 6.31152 10.0058 6.32067 10.1199C6.32981 10.234 6.33404 10.3607 6.33333 10.5C6.33263 10.6393 6.32841 10.7663 6.32067 10.8811C6.31293 10.9959 6.29076 11.1139 6.25417 11.235L13.6694 15.54C13.9509 15.2775 14.2764 15.072 14.6458 14.9236C15.0153 14.7752 15.4111 14.7007 15.8333 14.7C16.713 14.7 17.4606 15.0062 18.0764 15.6187C18.6921 16.2312 19 16.975 19 17.85C19 18.725 18.6921 19.4688 18.0764 20.0812C17.4606 20.6937 16.713 21 15.8333 21Z" fill="white"/>
</svg>
