<svg width="36" height="36" viewBox="0 0 36 36" fill="none" xmlns="http://www.w3.org/2000/svg">
<path d="M7.03732 7.87317C6.79599 8.35317 6.67732 8.94784 6.43999 10.1345L5.64266 14.1212C5.52966 14.6647 5.52878 15.2256 5.64008 15.7696C5.75139 16.3135 5.97253 16.829 6.28997 17.2844C6.60742 17.7399 7.01448 18.1258 7.48624 18.4185C7.95801 18.7112 8.48454 18.9046 9.03362 18.9867C9.5827 19.0688 10.1428 19.0381 10.6795 18.8962C11.2163 18.7544 11.7185 18.5045 12.1553 18.1619C12.5921 17.8192 12.9545 17.391 13.2201 16.9035C13.4857 16.416 13.649 15.8793 13.7 15.3265L13.7933 14.4065C13.7428 14.9916 13.8149 15.5808 14.005 16.1365C14.195 16.6922 14.499 17.2021 14.8973 17.6337C15.2956 18.0653 15.7795 18.409 16.3182 18.643C16.8569 18.8769 17.4385 18.9959 18.0258 18.9924C18.6131 18.9889 19.1931 18.8629 19.729 18.6224C20.2648 18.382 20.7446 18.0325 21.1377 17.5961C21.5308 17.1598 21.8285 16.6462 22.0119 16.0883C22.1953 15.5304 22.2602 14.9403 22.2027 14.3558L22.3 15.3265C22.351 15.8793 22.5143 16.416 22.7799 16.9035C23.0455 17.391 23.4078 17.8192 23.8447 18.1619C24.2815 18.5045 24.7837 18.7544 25.3204 18.8962C25.8572 19.0381 26.4173 19.0688 26.9664 18.9867C27.5154 18.9046 28.042 18.7112 28.5137 18.4185C28.9855 18.1258 29.3926 17.7399 29.71 17.2844C30.0275 16.829 30.2486 16.3135 30.3599 15.7696C30.4712 15.2256 30.4703 14.6647 30.3573 14.1212L29.56 10.1345C29.3227 8.94784 29.204 8.3545 28.9627 7.87317C28.7112 7.37189 28.3571 6.92909 27.9235 6.5735C27.4898 6.21792 26.9862 5.95751 26.4453 5.80917C25.9253 5.6665 25.32 5.6665 24.1093 5.6665H11.8907C10.68 5.6665 10.0747 5.6665 9.55466 5.80917C9.01381 5.95751 8.51021 6.21792 8.07653 6.5735C7.64285 6.92909 7.28878 7.37189 7.03732 7.87317ZM26.3587 20.9998C27.4004 21.0025 28.4252 20.7356 29.3333 20.2252V21.6665C29.3333 26.6945 29.3333 29.2092 27.7707 30.7705C26.5133 32.0292 24.64 32.2732 21.3333 32.3212V27.6665C21.3333 26.4198 21.3333 25.7972 21.0653 25.3332C20.8898 25.0292 20.6373 24.7767 20.3333 24.6012C19.8693 24.3332 19.2467 24.3332 18 24.3332C16.7533 24.3332 16.1307 24.3332 15.6667 24.6012C15.3626 24.7767 15.1102 25.0292 14.9347 25.3332C14.6667 25.7972 14.6667 26.4198 14.6667 27.6665V32.3212C11.36 32.2732 9.48666 32.0278 8.22932 30.7705C6.66666 29.2092 6.66666 26.6945 6.66666 21.6665V20.2252C7.57521 20.7358 8.60043 21.0027 9.64266 20.9998C11.1835 21.0008 12.667 20.4154 13.792 19.3625C14.9383 20.4189 16.4411 21.0037 18 20.9998C19.5588 21.0037 21.0617 20.4189 22.208 19.3625C23.333 20.4154 24.8178 21.0008 26.3587 20.9998Z" fill="#A1A1A1"/>
</svg>
