<svg width="58" height="58" viewBox="0 0 58 58" fill="none" xmlns="http://www.w3.org/2000/svg">
<path d="M17.0327 32.3978L25.5756 40.9432L22.1609 44.3603L25.5804 47.7799L22.1633 51.1971L16.182 45.2158L9.34527 52.0526L5.9281 48.6354L12.7649 41.7963L6.7836 35.8174L10.2008 32.4002L13.6179 35.815L17.0327 32.3978ZM7.25002 7.25L15.8195 7.25725L44.3773 35.8174L47.7969 32.4002L51.2164 35.8174L45.2352 41.7987L52.0695 48.6354L48.6524 52.0526L41.8156 45.2158L35.8368 51.1971L32.4172 47.7799L35.8344 44.3603L7.25485 15.7833L7.25002 7.25ZM42.1878 7.25L50.75 7.25725L50.7549 15.7712L40.9601 25.5635L32.4148 17.0206L42.1878 7.25Z" fill="#A1A1A1"/>
</svg>
