<svg width="31" height="23" viewBox="0 0 31 23" fill="none" xmlns="http://www.w3.org/2000/svg">
<path d="M7.79615 0.000136825H5.74185C4.22005 0.00350737 2.76155 0.609532 1.68547 1.68561C0.609396 2.76168 0.00337055 4.22019 0 5.74198L0 7.65593C0 7.82513 0.0672159 7.98741 0.186861 8.10705C0.306506 8.2267 0.468779 8.29391 0.637983 8.29391H6.69882C6.86802 8.29391 7.0303 8.2267 7.14994 8.10705C7.26959 7.98741 7.3368 7.82513 7.3368 7.65593V3.82803C7.34846 2.66615 7.60043 1.51926 8.07686 0.459484C8.10255 0.412538 8.11601 0.359883 8.11601 0.306369C8.11601 0.252854 8.10255 0.200199 8.07686 0.153253C8.04769 0.105285 8.00637 0.0658671 7.95708 0.0389822C7.90779 0.0120973 7.85228 -0.00130237 7.79615 0.000136825ZM19.9178 0.127733C19.8088 0.0422642 19.6735 -0.00282128 19.535 0.000136825H11.1009C10.9684 -0.0026336 10.8385 0.0376623 10.7309 0.114974C9.28903 1.14851 9.25075 3.68768 9.25075 3.82803V7.65593C9.25075 7.82513 9.31797 7.98741 9.43761 8.10705C9.55726 8.2267 9.71953 8.29391 9.88873 8.29391H20.7344C20.9036 8.29391 21.0659 8.2267 21.1856 8.10705C21.3052 7.98741 21.3724 7.82513 21.3724 7.65593V3.82803C21.3724 3.68768 21.3341 1.16127 19.9178 0.127733ZM24.8813 0.000136825H22.827C22.7731 0.000904776 22.7202 0.0153547 22.6733 0.0421339C22.6264 0.068913 22.5871 0.107145 22.5591 0.153253C22.5334 0.200199 22.5199 0.252854 22.5199 0.306369C22.5199 0.359883 22.5334 0.412538 22.5591 0.459484C23.0311 1.5202 23.2787 2.66705 23.2864 3.82803V7.65593C23.2864 7.82513 23.3536 7.98741 23.4732 8.10705C23.5929 8.2267 23.7552 8.29391 23.9244 8.29391H29.9852C30.1544 8.29391 30.3167 8.2267 30.4363 8.10705C30.556 7.98741 30.6232 7.82513 30.6232 7.65593V5.74198C30.6198 4.22019 30.0138 2.76168 28.9377 1.68561C27.8616 0.609532 26.4031 0.00350737 24.8813 0.000136825ZM6.69882 10.2079H0.637983C0.468779 10.2079 0.306506 10.2751 0.186861 10.3947C0.0672159 10.5144 0 10.6766 0 10.8458L0 19.7776C0 20.6236 0.336079 21.435 0.934304 22.0332C1.53253 22.6314 2.3439 22.9675 3.18991 22.9675H6.69882C6.86802 22.9675 7.0303 22.9003 7.14994 22.7807C7.26959 22.661 7.3368 22.4987 7.3368 22.3295V10.8458C7.3368 10.6766 7.26959 10.5144 7.14994 10.3947C7.0303 10.2751 6.86802 10.2079 6.69882 10.2079ZM20.7344 10.2079H19.1395C18.9703 10.2079 18.808 10.2751 18.6884 10.3947C18.5687 10.5144 18.5015 10.6766 18.5015 10.8458V12.1218C18.5015 12.9678 18.1654 13.7792 17.5672 14.3774C16.969 14.9756 16.1576 15.3117 15.3116 15.3117C14.4656 15.3117 13.6542 14.9756 13.056 14.3774C12.4578 13.7792 12.1217 12.9678 12.1217 12.1218V10.8458C12.1217 10.6766 12.0545 10.5144 11.9348 10.3947C11.8152 10.2751 11.6529 10.2079 11.4837 10.2079H9.88873C9.71953 10.2079 9.55726 10.2751 9.43761 10.3947C9.31797 10.5144 9.25075 10.6766 9.25075 10.8458V22.3295C9.25075 22.4987 9.31797 22.661 9.43761 22.7807C9.55726 22.9003 9.71953 22.9675 9.88873 22.9675H20.7344C20.9036 22.9675 21.0659 22.9003 21.1856 22.7807C21.3052 22.661 21.3724 22.4987 21.3724 22.3295V10.8458C21.3724 10.6766 21.3052 10.5144 21.1856 10.3947C21.0659 10.2751 20.9036 10.2079 20.7344 10.2079ZM29.9852 10.2079H23.9244C23.7552 10.2079 23.5929 10.2751 23.4732 10.3947C23.3536 10.5144 23.2864 10.6766 23.2864 10.8458V22.3295C23.2864 22.4987 23.3536 22.661 23.4732 22.7807C23.5929 22.9003 23.7552 22.9675 23.9244 22.9675H27.4333C27.8522 22.9675 28.267 22.885 28.654 22.7247C29.041 22.5644 29.3927 22.3294 29.6889 22.0332C29.9851 21.737 30.22 21.3853 30.3804 20.9983C30.5407 20.6113 30.6232 20.1965 30.6232 19.7776V10.8458C30.6232 10.6766 30.556 10.5144 30.4363 10.3947C30.3167 10.2751 30.1544 10.2079 29.9852 10.2079Z" fill="white"/>
<path d="M14.0356 12.1217C14.0356 12.4601 14.1701 12.7846 14.4094 13.0239C14.6487 13.2632 14.9732 13.3976 15.3116 13.3976C15.65 13.3976 15.9746 13.2632 16.2139 13.0239C16.4531 12.7846 16.5876 12.4601 16.5876 12.1217C16.5876 11.7833 16.4531 11.4587 16.2139 11.2194C15.9746 10.9801 15.65 10.8457 15.3116 10.8457C14.9732 10.8457 14.6487 10.9801 14.4094 11.2194C14.1701 11.4587 14.0356 11.7833 14.0356 12.1217Z" fill="white"/>
</svg>
