<svg width="46" height="31" viewBox="0 0 46 31" fill="none" xmlns="http://www.w3.org/2000/svg">
<path d="M36.957 11.4329C35.6582 4.90253 29.8712 0 22.9191 0C17.3994 0 12.6055 3.1043 10.2181 7.64719C4.46922 8.25291 0 13.0797 0 18.9287C0 25.1941 5.13769 30.2859 11.4595 30.2859H36.2885C41.5599 30.2859 45.8381 26.0459 45.8381 20.8216C45.8381 15.8244 41.9228 11.7736 36.957 11.4329ZM36.2885 26.5002H11.4595C7.2386 26.5002 3.81984 23.1119 3.81984 18.9287C3.81984 15.0483 6.74202 11.8115 10.6192 11.414L12.6628 11.2058L13.6177 9.40756C15.4322 5.94361 18.9846 3.78574 22.9191 3.78574C27.9231 3.78574 32.2395 7.30647 33.2135 12.1711L33.7865 15.0104L36.7087 15.2187C39.6882 15.408 42.0183 17.8876 42.0183 20.8216C42.0183 23.9448 39.4399 26.5002 36.2885 26.5002ZM15.2794 17.0358H20.1497V22.7144H25.6884V17.0358H30.5587L22.9191 9.46434L15.2794 17.0358Z" fill="white"/>
</svg>
